<svg class="icon" viewBox="0 0 1024 1024" xmlns="http://www.w3.org/2000/svg" width="200" height="200"><path d="M953.294 905.19H69.731c-36.159 0-65.447-31.395-65.447-70.117V291.81c0-38.698 29.29-70.107 65.447-70.107h201.066c16.255-12.167 33.498-32.717 52.568-65.874 28.188-48.97 52.12-42.956 52.12-42.956h234.13s72.724 1.3 92.893 43.436c16.625 34.72 34.707 54.295 49.954 65.394h200.83v-.008c36.163 0 65.466 31.4 65.466 70.1v543.278c0 38.722-29.302 70.116-65.464 70.116zM511.397 315.1c-127.242 0-230.383 104.378-230.383 233.112 0 128.745 103.14 233.11 230.383 233.11 127.228 0 230.4-104.365 230.4-233.11 0-128.734-103.171-233.113-230.4-233.113zm330.383-31.364c-21.176 0-38.358 17.423-38.358 38.932 0 21.501 17.183 38.916 38.358 38.916 21.209 0 38.39-17.415 38.39-38.916 0-21.509-17.181-38.932-38.39-38.932zM511.522 734.425c-101.808 0-184.347-83.476-184.347-186.446 0-102.976 82.539-186.457 184.347-186.457 101.81 0 184.346 83.482 184.346 186.457 0 102.97-82.535 186.446-184.346 186.446zM99.392 128.477H210.35v47.553H99.392v-47.553z"/></svg>