<svg class="icon" viewBox="0 0 1024 1024" xmlns="http://www.w3.org/2000/svg" width="200" height="200"><path d="M475.097 413.787c0 40.94-33.498 74.438-74.437 74.438H136.096c-40.94 0-74.437-33.498-74.437-74.438V137.96c0-40.94 33.496-74.437 74.437-74.437h264.566c40.94 0 74.437 33.497 74.437 74.437l-.002 275.827zm0 472.265c0 40.94-33.498 74.435-74.437 74.435H136.096c-40.94 0-74.437-33.494-74.437-74.435V610.23c0-40.94 33.496-74.435 74.437-74.435h264.566c40.94 0 74.437 33.496 74.437 74.435l-.002 275.822zM958.62 413.787c0 40.94-33.496 74.438-74.438 74.438H619.603c-40.942 0-74.436-33.498-74.436-74.438V137.96c0-40.94 33.496-74.437 74.436-74.437h264.581c40.94 0 74.436 33.497 74.436 74.437v275.827zm.004 472.265c0 40.94-33.498 74.435-74.438 74.435H619.604c-40.941 0-74.436-33.494-74.436-74.435V610.23c0-40.94 33.496-74.435 74.436-74.435h264.582c40.94 0 74.438 33.496 74.438 74.435v275.822z"/></svg>