<svg class="icon" viewBox="0 0 1024 1024" xmlns="http://www.w3.org/2000/svg" width="200" height="200"><defs><style/></defs><path d="M713.034 201.31V91.657c0-45.434-28.474-73.104-74.967-73.104h-252.17c-46.42 0-74.931 27.67-74.931 73.104V201.31H91.656v73.103h73.103v621.379c0 65.866 41.23 109.655 109.655 109.655h475.172c66.853 0 109.655-40.646 109.655-109.655V274.414h73.103v-73.103h-219.31zM384.07 91.657h255.862l-1.535 109.655H384.069V91.656zm402.069 840.688H237.862v-657.93h548.276v657.93zM457.172 347.517h-71.275l-1.828 475.172h73.103V347.517zm182.759 0h-73.103V822.69h73.103V347.517z"/></svg>