<svg class="icon" viewBox="0 0 1024 1024" xmlns="http://www.w3.org/2000/svg" width="200" height="200"><path d="m317.564 715.88 198.963-84.708-122.135-120.166-76.828 204.874zm590.981-468.845L782.47 117.018l-365.423 360.5 131.001 135.925 360.498-366.409zm103.866-155.518s-33.373-36.934-71.785-65.003c-38.411-28.07-67.96 0-67.96 0l-65.003 65.003 131.979 131.487s55.648-56.14 72.77-75.345c17.12-19.206-.001-56.142-.001-56.142z"/><path d="M842.155 1006.069h-712.26c-70.129 0-127.19-57.061-127.19-127.19V166.62c0-70.126 57.061-127.188 127.19-127.188h345.721c14.06 0 25.437 11.39 25.437 25.438s-11.377 25.438-25.437 25.438H129.894c-42.081 0-76.313 34.23-76.313 76.313v712.26c0 42.082 34.232 76.314 76.313 76.314h712.26c42.081 0 76.314-34.232 76.314-76.314V533.16c0-14.05 11.377-25.44 25.438-25.44s25.437 11.391 25.437 25.44v345.72c0 70.128-57.06 127.189-127.188 127.189z"/></svg>