<svg class="icon" viewBox="0 0 1024 1024" xmlns="http://www.w3.org/2000/svg" width="200" height="200"><path d="M978.034 710.064h-279.62c-11.651 0-23.302-11.65-23.302-23.301s11.65-23.302 23.302-23.302h279.62c11.65 0 23.301 11.65 23.301 23.302s-11.65 23.301-23.301 23.301zm0-139.81h-279.62c-11.651 0-23.302-11.65-23.302-23.301s11.65-23.302 23.302-23.302h279.62c11.65 0 23.301 11.65 23.301 23.302s-11.65 23.301-23.301 23.301zM788.708 241.118C785.795 244.03 512 500.349 512 500.349v442.732l-186.414-93.207V500.35L57.617 249.856c-2.913-2.913-5.825-5.825-8.738-5.825-17.476-17.477-26.214-40.778-26.214-66.993 0-52.429 43.69-96.12 96.119-96.12h600.018c52.43 0 96.12 43.691 96.12 96.12 0 26.215-11.65 49.516-26.214 64.08zm-69.906-107.77H118.784c-23.302 0-43.69 20.389-43.69 43.69 0 11.651 2.912 23.302 11.65 29.127l2.913 2.913 259.231 244.668 17.476 14.563 2.913 29.127-2.913 311.66 93.207 46.604V468.31l17.476-14.564L739.191 211.99l2.913-2.913c8.738-8.738 11.651-17.476 11.651-29.127 8.738-26.214-11.65-46.603-34.953-46.603zM698.414 803.27h279.62c11.65 0 23.301 11.651 23.301 23.302s-11.65 23.301-23.301 23.301h-279.62c-11.651 0-23.302-11.65-23.302-23.301 0-14.564 8.738-23.302 23.302-23.302z"/></svg>