<svg class="icon" viewBox="0 0 1024 1024" xmlns="http://www.w3.org/2000/svg" width="200" height="200"><path d="M940.168 354h-5.795v-90.05c0-37.987-30.947-68.965-68.964-68.965H489.942v-47.908c0-37.986-30.947-68.935-68.934-68.935H83.862c-38.018 0-68.965 30.948-68.965 68.935v729.877c0 38.017 30.947 68.904 68.965 68.904h781.547c38.017 0 68.964-30.888 68.844-67.63l74.85-455.293c0-37.987-30.947-68.934-68.935-68.934zM76.155 177.75c0-29.763 8.586-38.38 38.35-38.38h275.859c29.673 0 38.29 8.617 38.29 38.38v70.846l1.912 7.646h404.26c29.703 0 38.29 8.617 38.29 38.29v59.469H158.532c-37.986 0-68.934 30.947-68.873 67.751l-13.501 87.806V177.751zm796.96 668.5c0 29.763-8.586 38.35-38.35 38.35h-720.26c-29.764 0-38.35-8.587-38.472-36.925l74.85-394.096c0-29.734 8.618-38.35 38.291-38.35h720.32c29.702 0 38.32 8.617 38.441 36.925l-74.82 394.095z"/></svg>