<svg class="icon" viewBox="0 0 1024 1024" xmlns="http://www.w3.org/2000/svg" width="200" height="200"><defs><style/></defs><path d="M969.602 435.438L600.483 51.53c-22.927-23.821-53.6-36.955-86.447-36.955-32.848 0-63.519 13.134-86.473 36.955L58.446 435.438c-38.092 39.626-33.181 73.883-26.886 88.18 4.49 10.165 19.64 38.065 63.284 38.065h54.107v295.334c0 67.032 48.182 130.179 116.674 130.179h157.14V674.65c0-33.516-5.095-52.192 29.188-52.192h124.169c34.258 0 29.186 18.676 29.186 52.191v312.548h157.116c68.515 0 116.7-63.148 116.7-130.179V561.685h54.094c43.656 0 58.796-27.901 63.296-38.066 6.28-14.298 11.178-48.555-26.912-88.181zm-36.386 65.447H818.274v356.132c0 33.492-21.618 69.38-55.851 69.38h-96.268v-251.75c0-67.057-21.519-112.965-90.034-112.965H451.952c-68.516 0-90.035 45.908-90.035 112.965v251.748h-96.294c-34.232 0-55.826-35.887-55.826-69.38v-356.13H94.842c-1.077 0-2.053-4.18-2.944-4.254 2.115-3.661 5.738-12.986 11.761-19.244L472.826 93.752c11.032-11.502 26.59-18.525 41.68-18.378 15.088-.147 29.705 6.877 40.737 18.378l369.142 383.636c6.035 6.258 9.67 15.583 11.773 19.244-.888.074-1.879 4.253-2.942 4.253z"/></svg>