<svg class="icon" viewBox="0 0 1024 1024" xmlns="http://www.w3.org/2000/svg" width="200" height="200"><defs><style/></defs><path d="M793.6 460.8h-51.2V307.2a230.4 230.4 0 1 0-460.8 0v153.6h-51.2V307.2a281.6 281.6 0 0 1 563.2 0v153.6z"/><path d="M179.2 486.4a25.6 25.6 0 0 0-25.6 25.6v409.6a25.6 25.6 0 0 0 25.6 25.6h665.6a25.6 25.6 0 0 0 25.6-25.6V512a25.6 25.6 0 0 0-25.6-25.6H179.2zm0-51.2h665.6a76.8 76.8 0 0 1 76.8 76.8v409.6a76.8 76.8 0 0 1-76.8 76.8H179.2a76.8 76.8 0 0 1-76.8-76.8V512a76.8 76.8 0 0 1 76.8-76.8z"/><path d="M486.4 614.4h51.2v204.8h-51.2V614.4z"/></svg>