<svg class="icon" viewBox="0 0 1024 1024" xmlns="http://www.w3.org/2000/svg" width="200" height="200"><defs><style/></defs><path d="M512.607 562.972c-50.123 0-97.333-19.296-133.257-54.37-35.923-35.074-56.19-82.163-57.162-132.286-.97-50.85 17.84-99.153 53.157-135.805s82.648-57.405 133.62-58.497c51.58-.97 100.368 18.326 137.02 54.37 35.923 35.075 56.19 82.163 57.162 132.286 2.063 104.98-81.678 192.118-186.657 194.302h-3.883zm.121-346.976h-3.155c-41.75.85-80.828 17.84-109.712 48.06-29.006 30.097-44.42 69.783-43.57 111.532 1.578 84.59 71.726 153.403 156.316 153.403h3.155c86.29-1.7 155.102-73.303 153.403-159.592-1.699-84.59-71.968-153.403-156.437-153.403z"/><path d="M229.588 799.509c-1.456-70.876 26.822-137.99 79.614-188.962 52.43-50.73 122.82-79.493 198.186-80.95 75.367-1.456 146.85 24.395 201.22 73.061 54.735 48.91 85.682 114.81 87.139 185.685l-33.982.729c-1.214-61.289-28.156-118.45-75.73-161.049-47.939-42.841-111.169-65.779-177.919-64.444-137.382 2.792-246.973 108.256-244.546 235.323l-33.982.607z"/><path d="M512.485 1006.797c-130.465 0-253.648-50.366-346.976-141.63-93.45-91.508-146.364-213.842-148.913-344.672-1.335-66.992 10.438-132.164 35.196-193.938 23.787-59.589 58.497-113.353 103.158-159.835 44.662-46.482 96.97-83.255 155.587-109.469 60.682-27.064 125.368-41.506 192.36-42.841 3.399-.122 6.676-.122 10.074-.122 130.465 0 253.648 50.366 346.977 141.631 93.45 91.508 146.363 213.842 148.912 344.67 1.335 66.993-10.437 132.165-35.195 193.939-23.787 59.59-58.497 113.353-103.159 159.835-44.661 46.482-96.969 83.255-155.587 109.47-60.682 27.063-125.368 41.505-192.36 42.84-3.399 0-6.797.122-10.074.122zm.365-958.404c-3.156 0-6.311 0-9.345.122C248.642 53.612 45.48 265.026 50.578 519.889c4.976 249.765 212.142 453.048 461.907 453.048 3.156 0 6.311 0 9.345-.122 254.863-5.097 458.024-216.511 452.927-471.374C969.781 251.555 762.493 48.393 512.85 48.393z"/></svg>