<svg class="icon" viewBox="0 0 1024 1024" xmlns="http://www.w3.org/2000/svg" width="200" height="200"><path d="M512 1019.248c-241.577 0-438.135-196.559-438.135-438.136 0-158.514 86.232-304.982 224.457-382.971 12.047-6.975 27.899-2.537 34.24 9.51 6.974 12.048 2.535 27.899-9.512 34.24-122.373 68.478-198.46 198.46-198.46 338.587 0 213.679 173.732 387.41 387.41 387.41s387.41-173.731 387.41-387.41c0-140.127-76.087-270.109-198.46-338.587-12.047-6.975-16.486-22.192-9.511-34.24 6.975-12.047 22.192-16.485 34.24-9.51 138.224 77.355 224.456 224.457 224.456 382.337 0 242.211-196.558 438.77-438.135 438.77z"/><path d="M512 499.319c-59.602 0-107.79-48.189-107.79-107.79V112.542c0-59.601 48.188-107.79 107.79-107.79s107.79 48.189 107.79 107.79V391.53c0 59.601-48.188 107.79-107.79 107.79zm0-443.842c-31.703 0-57.065 25.362-57.065 57.065V391.53c0 31.703 25.362 57.065 57.065 57.065s57.065-25.362 57.065-57.065V112.542c0-31.703-25.362-57.065-57.065-57.065z"/></svg>