<svg class="icon" viewBox="0 0 1024 1024" xmlns="http://www.w3.org/2000/svg" width="200" height="200"><path d="m617.627 678.29 56.458-53.42 320.709 338.952-56.458 53.42z"/><path d="M396.69 779.701c-102.757 0-199.365-40.016-272.026-112.677S11.987 497.756 11.987 394.998 52.003 195.632 124.664 122.97 293.933 10.294 396.691 10.294 596.055 50.31 668.716 122.971c72.661 72.661 112.677 169.269 112.677 272.027s-40.016 199.365-112.677 272.026-169.267 112.677-272.025 112.677zm0-687.994c-167.234 0-303.29 136.056-303.29 303.292S229.455 698.29 396.69 698.29s303.292-136.056 303.292-303.292S563.926 91.707 396.69 91.707z"/></svg>