<svg class="icon" viewBox="0 0 1024 1024" xmlns="http://www.w3.org/2000/svg" width="200" height="200"><defs><style/></defs><path d="M980.658 612.035l-120.704-67.583c-2.923-1.643-5.96-2.578-8.96-3.018.88-10.143 1.549-20.344 1.549-30.715 0-9.933-.668-19.715-1.49-29.437 2.923-.478 5.883-1.28 8.71-2.885l120.304-68.308c8.023-4.547 11.117-16.257 7.086-26.284l-42.77-106.666c-4.03-10.028-14.364-16.389-23.304-14.135L786.928 296.76c-2.14.534-4.07 1.356-5.884 2.33-14.784-19.484-31.442-37.401-49.894-53.39.592-1.337 1.165-2.693 1.567-4.164l36.255-133.484c2.427-8.92-3.706-19.35-13.676-23.571L649.472 39.725c-9.971-4.222-21.738-1.357-26.456 6.59l-69.78 117.743c-16.867-2.483-34-4.202-51.556-4.202-9.55 0-18.949.688-28.309 1.433L406.305 45.054c-4.623-8.005-16.351-11.003-26.36-6.915l-106.34 43.514c-10.01 4.107-16.295 14.479-13.984 23.418l32.34 124.85c-25.214 18.853-47.793 40.916-67.105 65.768l-123.493-30.295c-8.96-2.216-19.274 4.202-23.248 14.27L35.997 386.556c-3.973 10.068-.84 21.758 7.22 26.266l109.51 61.316c-1.24 12.034-1.91 24.221-1.91 36.58 0 14.154 1.07 28.042 2.713 41.757L43.81 614.748c-8.023 4.565-11.117 16.294-7.086 26.322L79.51 747.735c4.012 10.029 14.327 16.37 23.286 14.135l125.441-31.576c17.88 22.216 38.491 42.044 61.202 59.33l-34.555 127.19c-2.427 8.9 3.725 19.369 13.696 23.572l105.825 44.774c9.971 4.204 21.718 1.339 26.437-6.609l70.237-118.507c10.106.879 20.267 1.527 30.601 1.527 15.682 0 31.002-1.375 46.131-3.362.287.573.268 1.223.613 1.797l69.13 119.807c4.62 8.023 16.369 11.003 26.378 6.915l106.34-43.514c10.01-4.088 16.275-14.44 13.984-23.419L729.546 785.9c-.591-2.312-1.547-4.375-2.636-6.304 19.943-16.714 37.765-35.759 53.561-56.464 2.294 1.452 4.834 2.655 7.717 3.362l134.325 32.97c8.979 2.215 19.255-4.183 23.227-14.25l42.139-106.895c3.973-10.067.84-21.777-7.22-26.284zM501.68 784.811c-151.363 0-274.073-122.71-274.073-274.092 0-151.364 122.71-274.074 274.073-274.074 151.382 0 274.092 122.71 274.092 274.074 0 151.381-122.71 274.092-274.092 274.092z"/><path d="M501.68 374.866c-76.331 0-138.22 61.89-138.22 138.221 0 76.35 61.889 138.24 138.22 138.24 76.35 0 138.24-61.89 138.24-138.24 0-76.331-61.89-138.22-138.24-138.22zm0 214.017c-41.852 0-75.795-33.945-75.795-75.796 0-41.852 33.944-75.795 75.795-75.795s75.796 33.944 75.796 75.795-33.943 75.796-75.796 75.796z"/></svg>