<svg class="icon" viewBox="0 0 1024 1024" xmlns="http://www.w3.org/2000/svg" width="200" height="200"><path d="M948.907 995.51H75.093c-25.632 0-46.603-20.971-46.603-46.603V75.093c0-25.632 20.971-46.603 46.603-46.603h873.814c25.632 0 46.603 20.971 46.603 46.603v873.814c0 25.632-20.971 46.603-46.603 46.603zM75.093 75.093v873.814h873.814V75.093H75.093z"/><path d="M512 558.603c-157.286 0-285.446-151.46-285.446-337.874 0-12.816 10.486-23.302 23.302-23.302s23.302 10.486 23.302 23.302C273.158 381.51 380.345 512 512 512s238.842-130.49 238.842-291.271c0-12.816 10.486-23.302 23.302-23.302s23.302 10.486 23.302 23.302c0 185.83-128.16 337.874-285.446 337.874z"/></svg>