<svg class="icon" viewBox="0 0 1024 1024" xmlns="http://www.w3.org/2000/svg" width="200" height="200"><path d="M512.508 657.33c-181.514 0-328.66-145.505-328.66-324.993 0-179.489 147.146-324.993 328.66-324.993 181.513 0 328.66 145.505 328.66 324.993-.001 179.49-147.147 324.993-328.66 324.993zm0-584.598c-144.76 0-262.528 116.456-262.528 259.606 0 143.149 117.767 259.607 262.528 259.607 144.767 0 262.534-116.458 262.534-259.607 0-143.15-117.767-259.606-262.534-259.606zm451.617 943.924h-27.908a20.947 20.947 0 0 1-20.677-17.44c-2.822-16.454-6.695-32.555-11.885-47.947-26.42-93.531-86.759-175.072-169.71-228.55-67.448 37.55-143.184 57.216-221.437 57.216-78.459 0-154.379-19.773-221.957-57.517-83.2 53.473-143.733 135.125-170.201 228.852 0 0-5.22 19.384-12.581 49.494-2.279 9.304-10.704 15.893-20.387 15.893H59.875c-10.042 0-17.806-8.762-16.501-18.615 20.304-153.152 115.665-282.87 248.37-352.053 62.594 43.17 138.662 68.552 220.764 68.552 81.919 0 157.832-25.263 220.356-68.257 132.398 69.26 227.5 198.83 247.762 351.757 1.305 9.853-6.453 18.615-16.501 18.615z"/></svg>